<?xml version="1.0" encoding="UTF-8"?>
<svg id="Layer_1" data-name="Layer 1" xmlns="http://www.w3.org/2000/svg" viewBox="0 0 450 450">
  <defs>
    <style>
      .cls-1 {
        fill: #ec5643;
      }

      .cls-2 {
        fill: #233331;
      }

      .cls-3 {
        stroke: #fff;
        stroke-miterlimit: 10;
        stroke-width: 14px;
      }

      .cls-4 {
        fill: #dcd3c0;
      }
    </style>
  </defs>
  <rect class="cls-2" x=".5" y="-.5" width="450" height="450"/>
  <g>
    <line class="cls-3" x1="111" y1="170.87" x2="350.77" y2="250.55"/>
    <line class="cls-3" x1="104" y1="426.87" x2="351.59" y2="251.38"/>
    <line class="cls-3" x1="346.42" y1="249.63" x2="526.92" y2="249.63"/>
    <path class="cls-4" d="M391.37,128.72c0,17.5-10.91,32.44-26.32,38.39l-4.05,23.74-11.03,61.33-11.03-61.33-4.1-23.95c-15.11-6.07-25.78-20.87-25.78-38.17,0-22.73,18.42-41.15,41.15-41.15s41.15,18.42,41.15,41.15Z"/>
    <path class="cls-4" d="M144.39,303.5c0,17.5-10.91,32.44-26.32,38.39l-4.05,23.74-11.03,61.33-11.03-61.33-4.1-23.95c-15.11-6.07-25.78-20.87-25.78-38.17,0-22.73,18.42-41.15,41.15-41.15s41.15,18.42,41.15,41.15Z"/>
    <path class="cls-4" d="M150.93,49.78c0,17.5-10.91,32.44-26.32,38.39l-4.05,23.74-11.03,61.33-11.03-61.33-4.1-23.95c-15.11-6.07-25.78-20.87-25.78-38.17,0-22.73,18.42-41.15,41.15-41.15s41.15,18.42,41.15,41.15Z"/>
    <circle class="cls-1" cx="109.92" cy="171.16" r="14.81"/>
    <circle class="cls-1" cx="350.91" cy="250.13" r="14.81"/>
    <circle class="cls-1" cx="102.27" cy="426.56" r="14.81"/>
  </g>
</svg>