<?xml version="1.0" encoding="UTF-8"?>
<svg id="Layer_1" data-name="Layer 1" xmlns="http://www.w3.org/2000/svg" viewBox="0 0 450 450">
  <defs>
    <style>
      .cls-1 {
        fill: #ec5643;
      }

      .cls-2 {
        fill: #fff;
      }

      .cls-3 {
        fill: #dcd3c0;
      }

      .cls-4 {
        stroke: #fff;
        stroke-miterlimit: 10;
        stroke-width: 3px;
      }
    </style>
  </defs>
  <line class="cls-4" x1="81.92" y1="179.26" x2="212.42" y2="212.76"/>
  <line class="cls-4" x1="82.08" y1="370.24" x2="212.92" y2="213.26"/>
  <line class="cls-4" x1="212.42" y1="212.76" x2="392.92" y2="212.76"/>
  <path class="cls-2" d="M227.03,281.26v5.4l-6.49,1.57c1.19,1.74,1.78,3.69,1.78,5.86,0,4.18-1.55,7.44-4.65,9.78s-7.41,3.5-12.92,3.5l-2.04-.1-1.67-.17c-1.16.84-1.74,1.77-1.74,2.79,0,1.53,2.08,2.3,6.23,2.3h7.05c4.55,0,8.01.92,10.4,2.75,2.39,1.84,3.58,4.53,3.58,8.09,0,4.55-2.02,8.09-6.06,10.6-4.04,2.51-9.84,3.76-17.41,3.76-5.78,0-10.2-.95-13.26-2.84-3.05-1.89-4.58-4.55-4.58-7.96,0-2.35.78-4.31,2.34-5.89s3.84-2.71,6.86-3.38c-1.16-.46-2.17-1.23-3.04-2.28-.87-1.06-1.3-2.18-1.3-3.36,0-1.49.46-2.72,1.37-3.71.91-.99,2.24-1.96,3.97-2.91-2.18-.88-3.9-2.3-5.17-4.25-1.27-1.95-1.91-4.25-1.91-6.9,0-4.25,1.47-7.54,4.41-9.86,2.94-2.32,7.14-3.49,12.61-3.49,1.16,0,2.54.1,4.13.3,1.59.2,2.61.34,3.06.44h14.46ZM195.03,325.74c0,1.46.75,2.61,2.24,3.45,1.5.84,3.59,1.25,6.29,1.25,4.05,0,7.23-.52,9.53-1.57,2.3-1.05,3.45-2.48,3.45-4.29,0-1.46-.68-2.47-2.04-3.03s-3.46-.84-6.3-.84h-5.86c-2.08,0-3.81.46-5.21,1.38s-2.09,2.13-2.09,3.64ZM199.15,294.02c0,2.12.51,3.79,1.54,5.02,1.03,1.23,2.59,1.85,4.69,1.85s3.68-.62,4.67-1.85c.99-1.23,1.48-2.9,1.48-5.02,0-4.69-2.05-7.04-6.16-7.04s-6.23,2.35-6.23,7.04Z"/>
  <path class="cls-2" d="M245.16,320.23h-11.31v-38.97h11.31v38.97Z"/>
  <path class="cls-2" d="M274.49,312.46c1.98,0,4.35-.41,7.12-1.22v7.91c-2.82,1.19-6.28,1.78-10.38,1.78-4.52,0-7.82-1.07-9.88-3.22-2.06-2.15-3.1-5.37-3.1-9.67v-18.79h-5.41v-4.5l6.23-3.56,3.26-8.23h7.23v8.3h11.61v7.98h-11.61v18.79c0,1.51.45,2.63,1.35,3.35.9.72,2.09,1.08,3.58,1.08Z"/>
  <path class="cls-2" d="M313.13,280.53c1.53,0,2.8.1,3.82.31l-.85,9.97c-.92-.23-2.03-.35-3.34-.35-3.61,0-6.42.87-8.44,2.61-2.02,1.74-3.02,4.18-3.02,7.32v19.83h-11.31v-38.97h8.57l1.67,6.55h.56c1.29-2.18,3.02-3.94,5.21-5.28,2.19-1.34,4.57-2,7.14-2Z"/>
  <path class="cls-2" d="M335.79,320.23h-11.31v-38.97h11.31v38.97Z"/>
  <path class="cls-2" d="M370.42,320.93c-4.87,0-8.69-1.66-11.46-4.98h-.59c.39,3.25.59,5.14.59,5.65v15.79h-11.31v-56.12h9.2l1.59,5.05h.52c2.64-3.86,6.56-5.79,11.75-5.79,4.89,0,8.73,1.78,11.49,5.33,2.77,3.56,4.15,8.49,4.15,14.81,0,4.16-.65,7.77-1.95,10.84-1.3,3.07-3.15,5.4-5.54,7.01-2.4,1.6-5.22,2.41-8.46,2.41ZM367.08,289.03c-2.79,0-4.83.81-6.12,2.42s-1.95,4.28-2,8v1.15c0,4.18.66,7.18,1.98,8.99s3.42,2.72,6.29,2.72c5.07,0,7.6-3.93,7.6-11.78,0-3.83-.62-6.71-1.87-8.63-1.25-1.92-3.21-2.88-5.88-2.88Z"/>
  <path class="cls-3" d="M237.08,138.74c0,10.63-6.63,19.71-15.99,23.32l-2.46,14.42-6.7,37.26-6.7-37.26-2.49-14.55c-9.18-3.69-15.66-12.68-15.66-23.19,0-13.81,11.19-25,25-25s25,11.19,25,25Z"/>
  <path class="cls-3" d="M107.08,294.74c0,10.63-6.63,19.71-15.99,23.32l-2.46,14.42-6.7,37.26-6.7-37.26-2.49-14.55c-9.18-3.69-15.66-12.68-15.66-23.19,0-13.81,11.19-25,25-25s25,11.19,25,25Z"/>
  <path class="cls-3" d="M107.42,104.76c0,10.63-6.63,19.71-15.99,23.32l-2.46,14.42-6.7,37.26-6.7-37.26-2.49-14.55c-9.18-3.69-15.66-12.68-15.66-23.19,0-13.81,11.19-25,25-25s25,11.19,25,25Z"/>
  <polyline class="cls-1" points="336.83 197.79 348.19 219.49 370.95 219.49 359.35 236.85 372.37 236.85 389.22 220 427.14 220 427.14 212.87 416.8 205.85 391.18 205.85 375.06 189.32 363.07 189.32 374.85 205.64 355.43 205.64 349.64 197.79 336.83 197.79"/>
  <path class="cls-2" d="M245.58,264.35c0,2.49-1.55,4.61-3.74,5.46l-.58,3.38-1.57,8.72-1.57-8.72-.58-3.41c-2.15-.86-3.67-2.97-3.67-5.43,0-3.23,2.62-5.85,5.85-5.85s5.85,2.62,5.85,5.85Z"/>
  <path class="cls-2" d="M335.96,264.03c0,2.49-1.55,4.61-3.74,5.46l-.58,3.38-1.57,8.72-1.57-8.72-.58-3.41c-2.15-.86-3.67-2.97-3.67-5.43,0-3.23,2.62-5.85,5.85-5.85s5.85,2.62,5.85,5.85Z"/>
  <circle class="cls-1" cx="82.5" cy="178.5" r="9"/>
  <circle class="cls-1" cx="212.5" cy="212.5" r="9"/>
  <circle class="cls-1" cx="81.5" cy="369.5" r="9"/>
</svg>