<?xml version="1.0" encoding="UTF-8"?>
<svg id="Layer_1" data-name="Layer 1" xmlns="http://www.w3.org/2000/svg" viewBox="0 0 901.5 450">
  <defs>
    <style>
      .cls-1 {
        fill: #ec5643;
      }

      .cls-2 {
        fill: #fff;
      }

      .cls-3 {
        fill: #dcd3c0;
      }

      .cls-4 {
        stroke: #fff;
        stroke-miterlimit: 10;
        stroke-width: 3px;
      }
    </style>
  </defs>
  <line class="cls-4" x1="74.06" y1="357.63" x2="204.56" y2="324.13"/>
  <line class="cls-4" x1="89.22" y1="182.13" x2="205" y2="324.5"/>
  <line class="cls-4" x1="204.56" y1="323.63" x2="828.14" y2="323.63"/>
  <path class="cls-3" d="M229.22,249.61c0,10.63-6.63,19.71-15.99,23.32l-2.46,14.42-6.7,37.26-6.7-37.26-2.49-14.55c-9.18-3.69-15.66-12.68-15.66-23.19,0-13.81,11.19-25,25-25s25,11.19,25,25Z"/>
  <path class="cls-3" d="M99.22,283.61c0,10.63-6.63,19.71-15.99,23.32l-2.46,14.42-6.7,37.26-6.7-37.26-2.49-14.55c-9.18-3.69-15.66-12.68-15.66-23.19,0-13.81,11.19-25,25-25s25,11.19,25,25Z"/>
  <path class="cls-3" d="M114.56,108.63c0,10.63-6.63,19.71-15.99,23.32l-2.46,14.42-6.7,37.26-6.7-37.26-2.49-14.55c-9.18-3.69-15.66-12.68-15.66-23.19,0-13.81,11.19-25,25-25s25,11.19,25,25Z"/>
  <polyline class="cls-1" points="761.97 308.66 773.33 330.36 796.09 330.36 784.49 347.72 797.51 347.72 814.36 330.88 852.28 330.88 852.28 323.75 841.94 316.72 816.32 316.72 800.2 300.19 788.21 300.19 799.99 316.51 780.57 316.51 774.78 308.66 761.97 308.66"/>
  <g>
    <path class="cls-2" d="M371.62,178.24v13.86l-16.65,4.02c3.04,4.47,4.57,9.48,4.57,15.03,0,10.73-3.98,19.1-11.94,25.09s-19.02,8.99-33.16,8.99l-5.23-.27-4.28-.45c-2.98,2.15-4.47,4.53-4.47,7.16,0,3.94,5.33,5.9,15.99,5.9h18.08c11.67,0,20.57,2.36,26.69,7.07,6.12,4.71,9.18,11.63,9.18,20.75,0,11.69-5.19,20.75-15.56,27.19-10.37,6.44-25.26,9.66-44.68,9.66-14.84,0-26.18-2.43-34.02-7.29-7.83-4.86-11.75-11.67-11.75-20.44,0-6.02,2-11.06,5.99-15.12s9.86-6.95,17.6-8.68c-2.98-1.19-5.58-3.15-7.8-5.86-2.22-2.71-3.33-5.59-3.33-8.63,0-3.82,1.17-6.99,3.52-9.53,2.35-2.53,5.74-5.02,10.18-7.47-5.58-2.27-10.01-5.9-13.27-10.91-3.27-5.01-4.9-10.91-4.9-17.71,0-10.91,3.77-19.35,11.32-25.31,7.55-5.96,18.33-8.95,32.35-8.95,2.98,0,6.52.25,10.61.76,4.09.51,6.71.88,7.85,1.12h37.11ZM289.5,292.37c0,3.76,1.92,6.71,5.76,8.86,3.84,2.15,9.21,3.22,16.13,3.22,10.4,0,18.55-1.34,24.45-4.02,5.9-2.68,8.85-6.35,8.85-11,0-3.76-1.74-6.35-5.23-7.78s-8.88-2.15-16.18-2.15h-15.03c-5.33,0-9.79,1.18-13.37,3.53s-5.38,5.47-5.38,9.35ZM300.06,210.97c0,5.43,1.32,9.72,3.95,12.88,2.63,3.16,6.65,4.74,12.04,4.74s9.45-1.58,11.99-4.74c2.54-3.16,3.8-7.45,3.8-12.88,0-12.04-5.27-18.07-15.8-18.07s-15.98,6.02-15.98,18.07Z"/>
    <path class="cls-2" d="M418.15,278.24h-29.02v-100.01h29.02v100.01Z"/>
    <path class="cls-2" d="M493.42,258.29c5.07,0,11.16-1.04,18.27-3.13v20.31c-7.23,3.04-16.11,4.56-26.64,4.56-11.61,0-20.06-2.76-25.36-8.28-5.3-5.51-7.95-13.79-7.95-24.82v-48.21h-13.89v-11.54l15.99-9.12,8.37-21.11h18.55v21.29h29.78v20.48h-29.78v48.21c0,3.88,1.16,6.74,3.47,8.59,2.32,1.85,5.38,2.77,9.18,2.77Z"/>
    <path class="cls-2" d="M592.57,176.36c3.93,0,7.2.27,9.8.8l-2.19,25.58c-2.35-.6-5.2-.89-8.57-.89-9.26,0-16.48,2.24-21.65,6.71-5.17,4.47-7.76,10.73-7.76,18.78v50.9h-29.02v-100.01h21.98l4.28,16.82h1.43c3.3-5.6,7.76-10.12,13.37-13.55,5.61-3.43,11.72-5.14,18.32-5.14Z"/>
    <path class="cls-2" d="M650.71,278.24h-29.03v-100.01h29.03v100.01Z"/>
    <path class="cls-2" d="M739.59,280.03c-12.5,0-22.3-4.26-29.4-12.79h-1.52c1.01,8.35,1.52,13.18,1.52,14.49v40.52h-29.03v-144.01h23.6l4.09,12.97h1.33c6.79-9.9,16.84-14.85,30.16-14.85,12.56,0,22.39,4.56,29.5,13.69,7.11,9.12,10.66,21.8,10.66,38.02,0,10.68-1.67,19.95-5,27.82-3.33,7.87-8.07,13.86-14.22,17.98-6.15,4.11-13.39,6.17-21.7,6.17ZM731.02,198.18c-7.17,0-12.4,2.07-15.7,6.22s-5.01,10.99-5.14,20.53v2.95c0,10.73,1.69,18.43,5.09,23.08,3.39,4.65,8.77,6.98,16.13,6.98,13.01,0,19.51-10.08,19.51-30.23,0-9.84-1.6-17.22-4.8-22.14-3.21-4.92-8.23-7.38-15.09-7.38Z"/>
    <path class="cls-2" d="M419.23,134.85c0,6.39-3.98,11.84-9.61,14.01l-1.48,8.66-4.03,22.38-4.02-22.38-1.5-8.74c-5.51-2.22-9.41-7.62-9.41-13.93,0-8.3,6.72-15.02,15.02-15.02s15.02,6.72,15.02,15.02Z"/>
    <path class="cls-2" d="M651.16,134.02c0,6.39-3.98,11.84-9.61,14.01l-1.48,8.66-4.03,22.38-4.02-22.38-1.5-8.74c-5.51-2.22-9.41-7.62-9.41-13.93,0-8.3,6.72-15.02,15.02-15.02s15.02,6.72,15.02,15.02Z"/>
  </g>
  <circle class="cls-1" cx="89.64" cy="182.37" r="9"/>
  <circle class="cls-1" cx="204.64" cy="323.37" r="9"/>
  <circle class="cls-1" cx="74.64" cy="357.37" r="9"/>
</svg>